PathFileType	4	(X/Y/Z)	13_1_24_p0_0-440_filt_butterworth.trc
DataRate	CameraRate	NumFrames	NumMarkers	Units	OrigDataRate	OrigDataStartFrame	OrigNumFrames
55.0	55.0	7	27	m	55.0	275	440
Frame#	Time	RHip			RKnee			RAnkle			RBigToe			RSmallToe			RHeel			LHip			LKnee			LAnkle			LBigToe			LSmallToe			LHeel			Neck			Head			Nose			RShoulder			RElbow			RWrist			RThumb			RIndex			RPinky			LShoulder			LElbow			LWrist			LThumb			LIndex			LPinky			
		X1	Y1	Z1	X2	Y2	Z2	X3	Y3	Z3	X4	Y4	Z4	X5	Y5	Z5	X6	Y6	Z6	X7	Y7	Z7	X8	Y8	Z8	X9	Y9	Z9	X10	Y10	Z10	X11	Y11	Z11	X12	Y12	Z12	X13	Y13	Z13	X14	Y14	Z14	X15	Y15	Z15	X16	Y16	Z16	X17	Y17	Z17	X18	Y18	Z18	X19	Y19	Z19	X20	Y20	Z20	X21	Y21	Z21	X22	Y22	Z22	X23	Y23	Z23	X24	Y24	Z24	X25	Y25	Z25	X26	Y26	Z26	X27	Y27	Z27	
275	5.0	0.3046794446475481	0.3889136635225751	1.2103727292447883	0.252353776732018	0.08588864882367164	1.0462458590130665	0.2622603449060931	-0.33435890495350407	1.1539768174999556	0.2567576462748152	-0.3346735596105954	0.995929649760221	0.3044604237488915	-0.3372673640233099	1.0153018123870117	0.2556819022965954	-0.44296895466074393	1.2806845606362258	0.11691479124377138	0.35998485878381203	1.2652226571559424	0.10736702702782441	0.06776692957164926	1.0768630643684187	0.10535551023903514	-0.35448594464100364	1.1890332926629794	0.1148941939816773	-0.32575368523161624	0.9687132628679856	0.08017385686618926	-0.328305458685654	0.9959746141787578	0.11815506308278648	-0.4165190100171287	1.2670362049908723	0.1881916282655125	0.7768278600837124	0.8665384067938947	0.18895778052772125	1.0188438798702393	0.6257446420970318	0.1963719157394937	0.878726381104644	0.6290397102274884	0.31578318302319136	0.7672005812818206	0.8514152355439379	0.3625684054039624	0.4648312746233153	1.0844817089757444	0.2535889353360529	0.615663893214109	0.926638525935532	0.1687328169788765	0.7235069120583423	0.9150731061200141	0.15884943646178037	0.7194339785495926	0.8879106709806667	0.17527043826488392	0.6743561101747735	0.8781502039973129	0.06839195000593637	0.754317096914503	0.90134580781853	0.07644478654333776	0.4834321355656839	1.0405937805300476	0.12080912330959101	0.2613986802827431	1.0445112506184926	0.13678438370775822	0.14194304449636813	1.0553205024605454	0.10396850317088388	0.12143385588614614	1.0482135695202137	0.06131508662891302	0.11048160240755589	1.1387935687705846	
276	5.0181818181818185	0.30508520991833554	0.38879673820893484	1.21163159437016	0.25239086965613794	0.0870164019351487	1.0461087391358888	0.26273908352513037	-0.3336228147776617	1.153828072454073	0.2563223211681114	-0.3342266117844104	0.9957231474113333	0.303851038228545	-0.3392485660661298	1.018568942224589	0.2558873482659547	-0.44251468605939515	1.2816204756580103	0.11737966687821803	0.3597232713395752	1.265862347952749	0.10608748585853617	0.06630937983529428	1.0808044688928244	0.10559008263170068	-0.3551454458658218	1.1902793494990618	0.11393907024145605	-0.32536803747347526	0.9684389942147349	0.07794664332171282	-0.3298844537989953	1.000393308541695	0.11840702417373387	-0.4161572340658679	1.267622374817578	0.1893886230782188	0.7775498168121372	0.8636486621258573	0.19033060171125574	1.0198754997016906	0.6258231406953285	0.1969760428493122	0.8803789842015037	0.627209929553391	0.31661027858321844	0.7658098432238022	0.8535917648167286	0.363992033122609	0.46330063101992763	1.0880060744384203	0.25290680315579145	0.6184395508071823	0.9284685776728336	0.172778645741748	0.7283004452893967	0.9117717657603905	0.16089110621872374	0.7242751684085592	0.8846167764411008	0.17512676212294515	0.6727248280838507	0.8790543611627931	0.06847506718697459	0.7553395860252246	0.9010521117295136	0.07636595066596692	0.48622281682045454	1.0397715175896254	0.12035475038421224	0.2628280800683885	1.0471185847983868	0.13612581515472158	0.14356693865400133	1.0601882342200422	0.10301796477655184	0.12640879498482976	1.052407232073677	0.06118307496452774	0.1132254948970774	1.1388384476148692	
277	5.036363636363636	0.3054872881154181	0.3888764208530831	1.212913678376172	0.2524239668800928	0.08835041933329746	1.0459835585253332	0.2633389105830728	-0.33283410931932944	1.1537494691013213	0.2558087894160278	-0.3334316381626048	0.9945503463305517	0.30357485082038876	-0.34109823090285074	1.0216054936533985	0.2560642563738209	-0.44182785708988415	1.2825950217189614	0.11783376650619638	0.35975387315891627	1.266740563073709	0.10464163051097086	0.06473778337550956	1.0848387600090876	0.10581556676295531	-0.3556498717797495	1.1913868730843076	0.1123166379921792	-0.3256702333754666	0.9697804621447806	0.07519263688637598	-0.3309239571976497	1.003783992772747	0.11870218921813729	-0.4159102731587142	1.2683453348727847	0.1904191627138913	0.7782116362826594	0.8611083466067062	0.1917245969218817	1.0210838184499946	0.6250274504865772	0.19779332101919977	0.8818157249979695	0.6258124044563647	0.31788845500894775	0.7649309341317581	0.856032887168685	0.36538176295044555	0.46218066572453365	1.0909505250495615	0.2524700537221492	0.6216844250271997	0.9293654452289023	0.17685581744028248	0.7337553498431656	0.906706274558269	0.16316623500668434	0.7303083961635514	0.8795128086294834	0.1743902529065846	0.672581082666132	0.8791445011253864	0.06809454026590717	0.756164851028051	0.9009383417599989	0.07477772587675172	0.4872859066641337	1.0424312515103011	0.11904586467082165	0.26398410742022016	1.0492145412997058	0.135668965506645	0.14567713013957995	1.0643471710298573	0.10316400073915866	0.1313671410272188	1.0561659075214498	0.060940728223850736	0.1156164458523396	1.1380906689385863	
278	5.054545454545455	0.30583947193070704	0.3890644283567405	1.214155064153478	0.2524471284644754	0.08981555821545428	1.0458592064726562	0.26404479364822503	-0.3320236215605616	1.153774879520925	0.2552241895991169	-0.33204252784633864	0.9922624468666299	0.3035871000341962	-0.3425335779440455	1.0239342930042938	0.25621191387388054	-0.4409973443244555	1.2835711797399596	0.11817217730671478	0.3600605683661335	1.267837496744254	0.10299134480213418	0.0630871975352128	1.0892160996375875	0.10605871909170342	-0.3560544272980767	1.1924803464459435	0.11051087384995556	-0.32619400120446623	0.9722265182358483	0.07240921646850136	-0.3314687850007545	1.005824548936616	0.11905197537811953	-0.4158148547440875	1.2692944130963821	0.19171488606754716	0.7786980903930374	0.859147277897089	0.19316067228992045	1.0223513560283544	0.623651614405943	0.19896843261745029	0.8828298575962412	0.6250930937056471	0.3194402864391226	0.7649132516919204	0.8584950483370337	0.3667280119331634	0.4616331386975103	1.092949936988782	0.2522423265767967	0.6248424275072578	0.9293023351505001	0.18006982162739668	0.7388473614854018	0.9019781134939666	0.16501121267348556	0.7364079158741433	0.8750433046260623	0.17340190085442692	0.6745304584339458	0.8781783942160677	0.067617298513446	0.7572175549164653	0.9007094919505347	0.07163979856109508	0.48696995307116364	1.0478680356596657	0.11662225661337783	0.2649123671832863	1.051241422835514	0.13544287416808026	0.14836103491835612	1.067008545958442	0.10443576964547302	0.1363064841698725	1.0588761162993692	0.06061764417185786	0.11754378848118474	1.1368848658453445	
279	5.072727272727272	0.30610798831210745	0.38935737696936057	1.2152473141197428	0.2524543157623169	0.09132155489024651	1.0457354340717646	0.2647874460819827	-0.3312577025666446	1.154014795501742	0.25454639034797566	-0.32994427182930075	0.9891007027330023	0.30389630812719237	-0.34331235939700533	1.025168877607028	0.2563243685899137	-0.44008704974454904	1.2845066656005357	0.11833710223546955	0.3606293552318129	1.2690277536083383	0.10114140195332162	0.06123974675533689	1.0942406323302287	0.10631060285351203	-0.35637891803604427	1.1935560899437365	0.1090267749140662	-0.326399119082258	0.9749398051374984	0.07027709828741159	-0.33168225094261194	1.0064990914388432	0.11944322871853982	-0.4158279380605383	1.2704874197762586	0.19340336899299754	0.7790164229171331	0.8578618196590668	0.19481026266328766	1.023601407603479	0.6220658468525185	0.20049735255106044	0.8833044146274804	0.6250621228925182	0.3210493210280839	0.7657637377303417	0.8606550086821751	0.36796288651489717	0.46177768421968635	1.093662419365524	0.25207234036376813	0.6272131332517331	0.9289130170081747	0.18171011265065926	0.742289637053567	0.8999492502814237	0.16575169791404587	0.7408505832365908	0.8739279869043876	0.17217992132251098	0.6779142324310887	0.8773556864280433	0.06728961000904327	0.7588582815932341	0.900336059718738	0.06724654428059998	0.4860088218007412	1.0553778351227623	0.11288531046970175	0.265735790732596	1.0537462906721262	0.13542799399594732	0.15148671941740083	1.0679848189071397	0.10649213072608696	0.1410250821615534	1.0602134197793918	0.0602904533895562	0.1190832223285822	1.1357657961183634	
280	5.090909090909091	0.3062559057633532	0.38973912987272424	1.2161749405962239	0.2524347348554848	0.09280768956178248	1.045628414970023	0.26546216771702696	-0.330600580786909	1.1545063612793098	0.2538702472610729	-0.3275913501490433	0.9857625055075057	0.30454514443983083	-0.34339177151650696	1.0252708871906386	0.2563917806177715	-0.43911339090122126	1.2853699435309707	0.11832129860614224	0.3613904790454418	1.2702360408959088	0.09914786058717998	0.05910297757912625	1.0998205670019146	0.10652008685288453	-0.3565429230036687	1.1944120486422583	0.10817815417449572	-0.32616754706094997	0.9773002765703452	0.06928296529666464	-0.3317290008907062	1.0063108137640218	0.11982765232280743	-0.4158192856115768	1.2717592963198223	0.19535706626317623	0.7792792880576707	0.8571089433336541	0.196954385170197	1.024793428143231	0.6203714075492512	0.20226736460788047	0.8833158346902504	0.6254143610400407	0.3224881624750714	0.7670984057266882	0.8621393748594057	0.3687549358383946	0.46280132078446634	1.092584615436385	0.2518553358808361	0.6283603348084725	0.9288548654597579	0.18158228742664606	0.7432887206983332	0.9015279930152924	0.16507512548651052	0.7426146487497273	0.877116831200695	0.1705547484700605	0.6813233043288816	0.8784896277661711	0.06719022865171967	0.7611415876223337	0.8999716897331982	0.062179546579102477	0.48509405850056925	1.0642068778781786	0.107909659191262	0.2666465354403863	1.0567116526072038	0.13553651935344613	0.1546732121404618	1.0678186600868227	0.108595294154606	0.14501458353862162	1.0603595051949746	0.06001727767319966	0.12050074189097992	1.1350621674044885	
281	5.109090909090909	0.30626104764707246	0.39016584018535116	1.2170252815078153	0.2523859436700338	0.09425012566862911	1.0455535208578282	0.2659932574701276	-0.33008071257149185	1.1551656107446004	0.25342777710564324	-0.3259483955801905	0.9831919085039459	0.30550857311217083	-0.3430388608407272	1.0247092700078313	0.2564023489428558	-0.438078476490008	1.2861465562725198	0.11812372967969029	0.362201414997168	1.2714594164929658	0.09708658493551861	0.05676401220839328	1.1054601365987466	0.10662563735627795	-0.3564383569848422	1.1948036122859134	0.10805272853406969	-0.3259062655870781	0.9790467408503856	0.0693902795004718	-0.3318517843351704	1.0062715270950746	0.12015523068794798	-0.41567622031748463	1.2728792109315983	0.19748719092406083	0.7795655075386754	0.8565786651865731	0.19985105840022205	1.0258682839836983	0.618496379275652	0.20411604164024516	0.8830360130345271	0.6257295273513155	0.3235360016312514	0.7684072111030822	0.862761352148892	0.3687462015483317	0.46480446310337437	1.0895467706119137	0.2517314653322844	0.6285375918595082	0.9287579278351905	0.18047449913172744	0.7425158138711998	0.9044975271286871	0.1636295855628601	0.7423874487074514	0.8819541852527604	0.1690740835292538	0.6840979194259846	0.8809732005634454	0.06731883155495245	0.7638085586093407	0.899756952687881	0.05722331377039473	0.4846698940424254	1.073085984061179	0.10213564081844885	0.2678888917258985	1.0596161482044237	0.13562410440980716	0.1576558385516636	1.067193237604255	0.11006165105019479	0.14802448132068485	1.0598996086341663	0.059794142227781	0.12205828889129322	1.134729436831451	
